<svg xmlns="http://www.w3.org/2000/svg" viewBox="0 0 1029.51 127.58"><defs><style>.cls-1{fill:none;}.cls-2{fill:#5da5d8;}.cls-3{fill:#b1dbbe;}.cls-4{fill:#6dc7bf;}</style></defs><title>horizontal</title><g id="Calque_2" data-name="Calque 2"><g id="Logo"><g id="Horizontal"><path class="cls-1" d="M425.46,27.74q-14.79,0-23.59,9.58t-8.79,25.94q0,16.18,8.79,25.85t23.59,9.66q14.63,0,23.42-9.75t8.79-25.76q0-16.2-8.79-25.86T425.46,27.74Z"/><path class="cls-1" d="M548.36,27.92H536.92a2.66,2.66,0,0,0-2.66,2.65V96.29a2.66,2.66,0,0,0,2.66,2.65h11.44q16.88,0,26.29-9.22t9.4-26.12q0-16.87-9.4-26.28T548.36,27.92Z"/><path class="cls-1" d="M967,27.74q-14.81,0-23.59,9.58t-8.79,25.94q0,16.18,8.79,25.85T967,98.77q14.63,0,23.41-9.75t8.79-25.76q0-16.2-8.79-25.86T967,27.74Z"/><path class="cls-2" d="M291.07,28.27a29.08,29.08,0,0,1,15.23,4,26,26,0,0,1,9.63,10.22,2.67,2.67,0,0,0,2.34,1.44h27.57a2.68,2.68,0,0,0,2.52-3.53,54.42,54.42,0,0,0-19.69-27.8Q313.17,1.11,291.42,1.11q-17.76,0-31.77,7.92A56,56,0,0,0,237.8,31.14Q230,45.33,230,63.43t7.83,32.2a56.24,56.24,0,0,0,21.85,22q14,7.92,31.77,7.92,21.76,0,37.25-11.41a54,54,0,0,0,19.69-27.71,2.68,2.68,0,0,0-2.52-3.53H318.27a2.67,2.67,0,0,0-2.34,1.44,26,26,0,0,1-9.63,10.22,29.08,29.08,0,0,1-15.23,4q-13.76,0-22.28-9.57t-8.53-25.59q0-16,8.53-25.59T291.07,28.27Z"/><path class="cls-2" d="M457.06,8.77a66.32,66.32,0,0,0-63.19,0,60.09,60.09,0,0,0-22.81,22.28,62.05,62.05,0,0,0-8.44,32.21,62.52,62.52,0,0,0,8.44,32.29,59.89,59.89,0,0,0,22.81,22.37,66.21,66.21,0,0,0,63.1,0A59.49,59.49,0,0,0,479.6,95.55,63,63,0,0,0,488,63.26a63.1,63.1,0,0,0-8.27-32.21A58.92,58.92,0,0,0,457.06,8.77ZM448.88,89q-8.81,9.75-23.42,9.75-14.79,0-23.59-9.66t-8.79-25.85q0-16.36,8.79-25.94t23.59-9.58q14.63,0,23.42,9.66t8.79,25.86Q457.67,79.27,448.88,89Z"/><path class="cls-2" d="M584.05,10.16Q569.59,2.51,550.28,2.5H507.15a2.66,2.66,0,0,0-2.66,2.66V122.05a2.66,2.66,0,0,0,2.66,2.66h43.13q19.14,0,33.68-7.66a54.5,54.5,0,0,0,22.46-21.59q7.92-13.92,7.92-31.86t-7.92-31.94A54.8,54.8,0,0,0,584.05,10.16Zm-9.4,79.56q-9.4,9.23-26.29,9.22H536.92a2.66,2.66,0,0,1-2.66-2.65V30.57a2.66,2.66,0,0,1,2.66-2.65h11.44q16.88,0,26.29,9.4t9.4,26.28Q584.05,80.49,574.65,89.72Z"/><rect class="cls-2" x="631.05" y="2.5" width="29.77" height="122.21" rx="2.66"/><path class="cls-2" d="M738.46,28.27a29.13,29.13,0,0,1,15.23,4,26.07,26.07,0,0,1,9.62,10.22,2.67,2.67,0,0,0,2.34,1.44h27.58a2.67,2.67,0,0,0,2.51-3.53,54.46,54.46,0,0,0-19.68-27.8Q760.55,1.11,738.8,1.11,721,1.11,707,9a56,56,0,0,0-21.84,22.11q-7.85,14.19-7.84,32.29t7.84,32.2a56.15,56.15,0,0,0,21.84,22q14,7.92,31.77,7.92,21.76,0,37.26-11.41a54.06,54.06,0,0,0,19.68-27.71,2.67,2.67,0,0,0-2.51-3.53H765.65a2.67,2.67,0,0,0-2.34,1.44,26.07,26.07,0,0,1-9.62,10.22,29.13,29.13,0,0,1-15.23,4q-13.77,0-22.29-9.57t-8.53-25.59q0-16,8.53-25.59T738.46,28.27Z"/><path class="cls-2" d="M1021.24,31.05A58.83,58.83,0,0,0,998.62,8.77a66.34,66.34,0,0,0-63.2,0,60.13,60.13,0,0,0-22.8,22.28,62.05,62.05,0,0,0-8.44,32.21,62.52,62.52,0,0,0,8.44,32.29,59.93,59.93,0,0,0,22.8,22.37,66.23,66.23,0,0,0,63.11,0,59.49,59.49,0,0,0,22.63-22.37,63,63,0,0,0,8.35-32.29A63,63,0,0,0,1021.24,31.05ZM990.43,89q-8.79,9.75-23.41,9.75-14.81,0-23.59-9.66t-8.79-25.85q0-16.36,8.79-25.94T967,27.74q14.63,0,23.41,9.66t8.79,25.86Q999.22,79.27,990.43,89Z"/><rect class="cls-2" x="815.06" y="100.85" width="74.85" height="23.86" rx="2.66"/><rect class="cls-2" x="815.05" y="2.5" width="74.85" height="23.86" rx="2.66"/><rect class="cls-2" x="815.05" y="51.44" width="74.85" height="23.86" rx="2.66"/><path class="cls-3" d="M110.44.55A4.08,4.08,0,0,0,109,2L55.12,95.67l15.25,25.92,3,5.12a6.13,6.13,0,0,0,2.37-2.37l53.13-92.4L113.65,6Z"/><path class="cls-4" d="M55.12,95.67,36.68,64.3a1.78,1.78,0,0,1-.25-1H0a6.48,6.48,0,0,0,.91,3.31L34.67,124l.22.37a6.44,6.44,0,0,0,5.58,3.21H70.16a6.54,6.54,0,0,0,3.24-.87l-3-5.12Z"/><path class="cls-2" d="M36.68,62.34,70.37,5.06A3.36,3.36,0,0,0,67.47,0H39.27a5.35,5.35,0,0,0-4.6,2.62L.89,60A6.45,6.45,0,0,0,0,63.3H36.43A1.77,1.77,0,0,1,36.68,62.34Z"/><path class="cls-4" d="M183.11,61,149.35,3.58l-.23-.39A6.46,6.46,0,0,0,143.54,0H112.42a4,4,0,0,0-2,.55L113.65,6l15.25,26,.09.13.25.43,18.1,30.78a1.8,1.8,0,0,1,.25,1H184A6.42,6.42,0,0,0,183.11,61Z"/><path class="cls-2" d="M149.35,125l33.78-57.42a6.45,6.45,0,0,0,.89-3.26H147.59a1.77,1.77,0,0,1-.25,1l-33.69,57.28a3.36,3.36,0,0,0,2.9,5.06h28.2A5.35,5.35,0,0,0,149.35,125Z"/></g></g></g></svg>