<svg width="55" height="60" viewBox="0 0 55 60" fill="none" xmlns="http://www.w3.org/2000/svg">
<path d="M45.636 27.5001H8.99044C7.79623 27.5001 6.82812 28.3571 6.82812 29.4142V29.6157C6.82812 30.6729 7.79623 31.5299 8.99044 31.5299H45.636C46.8302 31.5299 47.7983 30.6729 47.7983 29.6157V29.4142C47.7983 28.3571 46.8302 27.5001 45.636 27.5001Z" fill="#1D1E21"/>
<path d="M45.636 40H8.99044C7.79623 40 6.82812 40.857 6.82812 41.9142V42.1157C6.82812 43.1728 7.79623 44.0299 8.99044 44.0299H45.636C46.8302 44.0299 47.7983 43.1728 47.7983 42.1157V41.9142C47.7983 40.857 46.8302 40 45.636 40Z" fill="#1D1E21"/>
<path d="M45.636 15H8.99044C7.79623 15 6.82812 15.857 6.82812 16.9142V17.1157C6.82812 18.1728 7.79623 19.0299 8.99044 19.0299H45.636C46.8302 19.0299 47.7983 18.1728 47.7983 17.1157V16.9142C47.7983 15.857 46.8302 15 45.636 15Z" fill="#1D1E21"/>
</svg>
