<svg width="94" height="101" viewBox="0 0 94 101" fill="none" xmlns="http://www.w3.org/2000/svg">
<path d="M37.2607 65.2322C37.2607 51.0929 37.2607 43.0206 37.2607 29.1645C37.2607 28.6122 37.7084 28.1611 38.2607 28.1611H90.3911C90.9434 28.1611 91.3911 27.7134 91.3911 27.1611V2.36707C91.3911 1.81478 90.9434 1.36707 90.3911 1.36707H2.39111C1.83883 1.36707 1.39111 1.81478 1.39111 2.36707V22.3895C1.39111 22.9418 1.83883 23.3895 2.39111 23.3895H61.3694C61.9217 23.3895 62.3694 23.8373 62.3694 24.3895V98.3671C62.3694 98.9194 61.9217 99.3671 61.3694 99.3671H38.2607C37.7084 99.3671 37.2607 98.9168 37.2607 98.3645C37.2607 85.654 37.2607 78.2248 37.2607 65.2322Z" stroke="url(#paint0_linear_1012_68)" stroke-width="2"/>
<defs>
<linearGradient id="paint0_linear_1012_68" x1="70.8476" y1="5.40452" x2="17.5924" y2="90.7062" gradientUnits="userSpaceOnUse">
<stop stop-color="#1D1E21"/>
<stop offset="1" stop-color="#1D1E21"/>
</linearGradient>
</defs>
</svg>
